<svg width="59" height="53" viewBox="0 0 59 53" fill="none" xmlns="http://www.w3.org/2000/svg">
<g filter="url(#filter0_d_231_49)">
<path d="M11.7536 37.7139V39.0739H8.95356V46.7539H7.30556V39.0739H4.50556V37.7139H11.7536ZM12.7852 44.1939C12.9932 45.2179 13.6812 45.7779 14.7692 45.7779C15.4412 45.7779 16.1132 45.3779 16.4012 44.8179L17.7292 45.1539C17.2332 46.3219 16.1132 46.9779 14.7532 46.9779C13.0572 46.9779 11.6172 46.1619 11.3772 44.1939C11.1692 41.8739 12.4492 40.2419 14.6092 40.2419C16.9292 40.2419 17.9532 41.8419 17.7452 44.1939H12.7852ZM14.5772 41.3459C13.6012 41.3459 12.8652 42.0979 12.7372 43.1859H16.4012C16.3852 42.1139 15.6012 41.3619 14.5772 41.3459ZM19.5954 40.5299H24.6354V46.7539H23.1954V41.9699H21.0834C20.9874 44.0019 20.4594 45.4419 19.2594 46.9939L18.0754 46.1619C19.3714 44.2419 19.7234 42.7699 19.5954 40.5299ZM26.6133 44.1939C26.8213 45.2179 27.5093 45.7779 28.5973 45.7779C29.2693 45.7779 29.9413 45.3779 30.2293 44.8179L31.5573 45.1539C31.0613 46.3219 29.9413 46.9779 28.5813 46.9779C26.8853 46.9779 25.4453 46.1619 25.2053 44.1939C24.9973 41.8739 26.2773 40.2419 28.4373 40.2419C30.7573 40.2419 31.7813 41.8419 31.5733 44.1939H26.6133ZM28.4053 41.3459C27.4293 41.3459 26.6933 42.0979 26.5653 43.1859H30.2293C30.2133 42.1139 29.4293 41.3619 28.4053 41.3459ZM39.2837 46.7539L37.8437 44.2579H37.0757V46.7539H35.6357V44.2579H34.8837L33.4757 46.7539H31.7317L33.7477 43.5859L31.9237 40.5299H33.6357L34.9637 42.9779H35.6357V40.5299H37.0757V42.9779H37.7637L39.0757 40.5299H40.7877L38.9637 43.5699L40.9797 46.7539H39.2837ZM45.7474 46.7539L44.0994 44.1139H43.1074V46.7539H41.6674V40.5299H43.1074V42.9139H44.0994L45.5394 40.5299H47.2354L45.3154 43.5219L47.4274 46.7539H45.7474ZM50.7007 40.2419C52.5727 40.2419 53.7887 41.3939 53.7887 43.3619V46.7539H52.3487V45.5539C51.7247 46.4659 50.5247 46.9779 49.5327 46.9779C48.1887 46.9619 47.5487 45.8899 47.5487 45.0259C47.5487 43.7299 48.5887 43.0419 49.6927 43.0419H52.3487C52.3167 42.4339 51.9967 41.3939 50.7167 41.3939C49.3407 41.3939 48.9887 42.4499 48.9887 42.4499L47.8207 42.1459C48.1247 40.9619 49.2927 40.2419 50.7007 40.2419ZM49.9167 45.7779C51.0367 45.7619 52.3167 44.9139 52.3167 44.0019H51.0367C49.9167 44.0019 49.1167 44.0819 48.9887 44.9139C48.9247 45.3459 49.1167 45.7459 49.9167 45.7779Z" fill="#4B2D02"/>
</g>
<g filter="url(#filter1_d_231_49)">
<path d="M23.6018 28.2812C25.1896 28.2813 26.4768 29.5685 26.4768 31.1562C26.4768 32.744 25.1896 34.0312 23.6018 34.0312C22.014 34.0312 20.7268 32.7441 20.7268 31.1562C20.7268 29.5684 22.014 28.2812 23.6018 28.2812ZM37.3518 28.2812C38.9396 28.2813 40.2268 29.5685 40.2268 31.1562C40.2268 32.744 38.9396 34.0312 37.3518 34.0312C35.764 34.0312 34.4768 32.7441 34.4768 31.1562C34.4768 29.5684 35.764 28.2812 37.3518 28.2812ZM20.2922 6.28711C20.9257 6.34107 21.4627 6.79126 21.6194 7.41699L22.0227 9.03125H41.4768C41.9387 9.03129 42.3752 9.24436 42.6594 9.6084C42.9435 9.97242 43.0439 10.4476 42.9319 10.8955L40.1819 21.8955C40.0148 22.563 39.4149 23.0312 38.7268 23.0312H22.9143C22.6036 23.0312 22.3518 23.2831 22.3518 23.5938C22.3518 23.9044 22.6036 24.1562 22.9143 24.1562H38.7268C39.5552 24.1563 40.2268 24.8279 40.2268 25.6562C40.2268 26.4846 39.5552 27.1562 38.7268 27.1562H22.9143C20.9468 27.1562 19.3518 25.5613 19.3518 23.5938C19.3518 22.0411 20.345 20.7204 21.7307 20.2324L19.3967 10.8955L18.9934 9.28125H16.7268C15.8984 9.28125 15.2268 8.60968 15.2268 7.78125C15.2268 6.95282 15.8984 6.28125 16.7268 6.28125H20.1643L20.2922 6.28711Z" fill="#4B2D02"/>
</g>
<defs>
<filter id="filter0_d_231_49" x="0.105615" y="34.3139" width="58.083" height="18.08" filterUnits="userSpaceOnUse" color-interpolation-filters="sRGB">
<feFlood flood-opacity="0" result="BackgroundImageFix"/>
<feColorMatrix in="SourceAlpha" type="matrix" values="0 0 0 0 0 0 0 0 0 0 0 0 0 0 0 0 0 0 127 0" result="hardAlpha"/>
<feOffset dy="1"/>
<feGaussianBlur stdDeviation="2.2"/>
<feComposite in2="hardAlpha" operator="out"/>
<feColorMatrix type="matrix" values="0 0 0 0 0 0 0 0 0 0 0 0 0 0 0 0 0 0 0.19 0"/>
<feBlend mode="normal" in2="BackgroundImageFix" result="effect1_dropShadow_231_49"/>
<feBlend mode="normal" in="SourceGraphic" in2="effect1_dropShadow_231_49" result="shape"/>
</filter>
<filter id="filter1_d_231_49" x="8.54556" y="0.6" width="41.8" height="41.8" filterUnits="userSpaceOnUse" color-interpolation-filters="sRGB">
<feFlood flood-opacity="0" result="BackgroundImageFix"/>
<feColorMatrix in="SourceAlpha" type="matrix" values="0 0 0 0 0 0 0 0 0 0 0 0 0 0 0 0 0 0 127 0" result="hardAlpha"/>
<feOffset dy="1"/>
<feGaussianBlur stdDeviation="2.2"/>
<feComposite in2="hardAlpha" operator="out"/>
<feColorMatrix type="matrix" values="0 0 0 0 0 0 0 0 0 0 0 0 0 0 0 0 0 0 0.19 0"/>
<feBlend mode="normal" in2="BackgroundImageFix" result="effect1_dropShadow_231_49"/>
<feBlend mode="normal" in="SourceGraphic" in2="effect1_dropShadow_231_49" result="shape"/>
</filter>
</defs>
</svg>
