<svg width="29" height="29" viewBox="0 0 29 29" fill="none" xmlns="http://www.w3.org/2000/svg">
<path d="M9.4812 20.8719C10.8254 21.0086 11.8744 22.144 11.8748 23.5242C11.8748 24.997 10.6805 26.1912 9.20776 26.1912C7.82757 26.1908 6.69218 25.1419 6.55542 23.7977L6.54175 23.5242L6.55542 23.2518C6.69216 21.9076 7.82756 20.8586 9.20776 20.8582L9.4812 20.8719ZM21.1472 20.8719C22.4918 21.0083 23.5414 22.1438 23.5417 23.5242C23.5417 24.997 22.3475 26.1912 20.8748 26.1912C19.4022 26.191 18.2078 24.9968 18.2078 23.5242C18.2081 22.0519 19.4024 20.8585 20.8748 20.8582L21.1472 20.8719ZM6.41968 2.19708C7.05292 2.25111 7.59009 2.70149 7.74683 3.32697L8.04565 4.52423H24.3748C24.8365 4.52423 25.2731 4.73757 25.5574 5.10138C25.8415 5.46538 25.9418 5.94049 25.8298 6.38849L23.4968 15.7215C23.3299 16.3891 22.7299 16.8581 22.0417 16.8582H8.62476C8.48701 16.8585 8.37494 16.9705 8.37476 17.1082C8.37493 17.246 8.487 17.358 8.62476 17.3582H22.0417L22.1951 17.366C22.9512 17.443 23.5416 18.0818 23.5417 18.8582C23.5416 19.6346 22.9512 20.2735 22.1951 20.3504L22.0417 20.3582H8.62476C6.83015 20.358 5.37493 18.9028 5.37476 17.1082C5.37489 15.7654 6.18939 14.6113 7.35132 14.116L5.41968 6.38849L5.12085 5.19122H3.37476C2.54654 5.19098 1.87476 4.5195 1.87476 3.69122C1.87494 2.86311 2.54665 2.19147 3.37476 2.19122H6.29175L6.41968 2.19708Z" fill="#E9FCFF"/>
</svg>
