<svg width="43" height="43" viewBox="0 0 43 43" fill="none" xmlns="http://www.w3.org/2000/svg">
<g filter="url(#filter0_d_19_29)">
<path d="M15.6018 28.2812C17.1896 28.2813 18.4768 29.5685 18.4768 31.1562C18.4768 32.744 17.1896 34.0312 15.6018 34.0312C14.014 34.0312 12.7268 32.7441 12.7268 31.1562C12.7268 29.5684 14.014 28.2812 15.6018 28.2812ZM29.3518 28.2812C30.9396 28.2813 32.2268 29.5685 32.2268 31.1562C32.2268 32.744 30.9396 34.0312 29.3518 34.0312C27.764 34.0312 26.4768 32.7441 26.4768 31.1562C26.4768 29.5684 27.764 28.2812 29.3518 28.2812ZM12.2922 6.28711C12.9257 6.34107 13.4627 6.79126 13.6194 7.41699L14.0227 9.03125H33.4768C33.9387 9.03129 34.3752 9.24436 34.6594 9.6084C34.9435 9.97242 35.0439 10.4476 34.9319 10.8955L32.1819 21.8955C32.0148 22.563 31.4149 23.0312 30.7268 23.0312H14.9143C14.6036 23.0312 14.3518 23.2831 14.3518 23.5938C14.3518 23.9044 14.6036 24.1562 14.9143 24.1562H30.7268C31.5552 24.1563 32.2268 24.8279 32.2268 25.6562C32.2268 26.4846 31.5552 27.1562 30.7268 27.1562H14.9143C12.9468 27.1562 11.3518 25.5613 11.3518 23.5938C11.3518 22.0411 12.345 20.7204 13.7307 20.2324L11.3967 10.8955L10.9934 9.28125H8.72681C7.89838 9.28125 7.22681 8.60968 7.22681 7.78125C7.22681 6.95282 7.89838 6.28125 8.72681 6.28125H12.1643L12.2922 6.28711Z" fill="#4B2D02"/>
</g>
<defs>
<filter id="filter0_d_19_29" x="0.545557" y="0.6" width="41.8" height="41.8" filterUnits="userSpaceOnUse" color-interpolation-filters="sRGB">
<feFlood flood-opacity="0" result="BackgroundImageFix"/>
<feColorMatrix in="SourceAlpha" type="matrix" values="0 0 0 0 0 0 0 0 0 0 0 0 0 0 0 0 0 0 127 0" result="hardAlpha"/>
<feOffset dy="1"/>
<feGaussianBlur stdDeviation="2.2"/>
<feComposite in2="hardAlpha" operator="out"/>
<feColorMatrix type="matrix" values="0 0 0 0 0 0 0 0 0 0 0 0 0 0 0 0 0 0 0.19 0"/>
<feBlend mode="normal" in2="BackgroundImageFix" result="effect1_dropShadow_19_29"/>
<feBlend mode="normal" in="SourceGraphic" in2="effect1_dropShadow_19_29" result="shape"/>
</filter>
</defs>
</svg>
