<svg width="587" height="127" viewBox="0 0 587 127" fill="none" xmlns="http://www.w3.org/2000/svg">
<path d="M67.5489 36.3359H72.6689V58.0959H56.0289V49.7759H38.1089V58.0959H21.4689V36.3359H25.3089C25.3089 36.3359 29.7889 30.5759 29.7889 4.97588H67.5489V36.3359ZM41.9489 36.3359H50.9089V18.4159H44.5089C44.5089 30.5759 41.9489 36.3359 41.9489 36.3359ZM74.5764 32.8159C74.5764 22.8959 82.5764 14.8959 94.0964 14.8959C105.616 14.8959 113.616 22.8959 113.616 32.8159C113.616 42.7359 105.616 50.7359 94.0964 50.7359C82.5764 50.7359 74.5764 42.7359 74.5764 32.8159ZM98.2564 32.8159C98.2564 29.9359 96.3364 28.0159 94.0964 28.0159C91.8564 28.0159 89.9364 29.9359 89.9364 32.8159C89.9364 35.6959 91.8564 37.6159 94.0964 37.6159C96.3364 37.6159 98.2564 35.6959 98.2564 32.8159ZM139.851 13.9359C133.451 13.9359 130.251 17.1359 130.251 21.6159C130.251 21.6159 134.091 17.1359 140.491 17.1359C148.811 17.1359 155.211 23.5359 155.211 32.8159C155.211 42.7359 147.211 50.7359 136.331 50.7359C125.451 50.7359 117.451 42.7359 117.451 28.6559V26.0959C117.451 11.0559 125.451 3.05588 139.851 3.05588C141.451 3.05588 142.411 2.09587 142.411 0.495876H154.571C154.571 10.7359 151.371 13.9359 139.851 13.9359ZM139.851 32.8159C139.851 29.6159 138.315 28.0159 136.331 28.0159C134.347 28.0159 132.811 29.6159 132.811 32.8159C132.811 36.0159 134.347 37.6159 136.331 37.6159C138.315 37.6159 139.851 36.0159 139.851 32.8159ZM175.396 14.8959C186.276 14.8959 194.276 22.8959 194.276 32.8159C194.276 38.3199 194.276 44.7839 194.276 49.7759H179.556L178.276 45.9359C178.276 45.9359 175.716 50.7359 169.956 50.7359C162.916 50.7359 158.436 46.2559 158.436 40.1759C158.436 34.0959 162.916 29.6159 173.796 29.6159H178.916C178.916 29.6159 178.276 26.0959 173.156 26.0959C169.956 26.0959 167.396 28.6559 167.396 28.6559L161.956 20.0159C161.956 20.0159 166.756 14.8959 175.396 14.8959ZM175.716 40.4959C177.316 40.4959 178.916 38.8959 178.916 35.0559C175.396 35.0559 173.796 36.6559 173.796 38.5759C173.796 39.5359 174.756 40.4959 175.716 40.4959ZM226.604 32.1759V32.4959C226.604 32.4959 233.324 34.0959 233.324 40.1759C233.324 45.2959 228.204 50.4159 215.724 50.4159C206.124 50.4159 200.044 49.7759 200.044 49.7759V15.8559C200.044 15.8559 206.124 15.2159 215.404 15.2159C226.284 15.2159 231.404 20.3359 231.404 25.4559C231.404 30.5759 226.604 32.1759 226.604 32.1759ZM214.764 40.8159H215.724C217.004 40.8159 217.964 39.8559 217.964 38.8959C217.964 37.9359 217.004 36.9759 215.724 36.9759H214.764V40.8159ZM214.764 24.8159V28.6559C216.364 28.6559 217.324 27.6959 217.324 26.7359C217.324 25.7759 216.364 24.8159 214.764 24.8159ZM256.674 24.8159C264.674 24.8159 270.434 30.5759 270.434 37.6159C270.434 44.6559 264.674 50.4159 253.474 50.4159C243.874 50.4159 237.794 49.7759 237.794 49.7759V15.8559H253.154V25.1359C253.154 25.1359 255.074 24.8159 256.674 24.8159ZM253.474 35.0559H252.514V40.1759H253.474C254.754 40.1759 255.714 39.2159 255.714 37.6159C255.714 36.0159 254.754 35.0559 253.474 35.0559ZM314.291 32.1759V32.4959C314.291 32.4959 321.011 34.0959 321.011 40.1759C321.011 45.2959 315.891 50.4159 303.411 50.4159C293.811 50.4159 287.731 49.7759 287.731 49.7759V15.8559C287.731 15.8559 293.811 15.2159 303.091 15.2159C313.971 15.2159 319.091 20.3359 319.091 25.4559C319.091 30.5759 314.291 32.1759 314.291 32.1759ZM302.451 40.8159H303.411C304.691 40.8159 305.651 39.8559 305.651 38.8959C305.651 37.9359 304.691 36.9759 303.411 36.9759H302.451V40.8159ZM302.451 24.8159V28.6559C304.051 28.6559 305.011 27.6959 305.011 26.7359C305.011 25.7759 304.051 24.8159 302.451 24.8159ZM395.254 15.8559L386.294 32.4959L396.534 49.7759H379.574L373.174 36.3359V49.7759H357.814V36.3359L351.414 49.7759H334.454L344.694 32.4959L335.734 15.8559H352.374L357.814 28.6559V15.8559H373.174V28.6559L378.614 15.8559H395.254ZM415.106 49.7759H399.106V15.8559H414.466V30.5759L420.226 15.8559H436.226V49.7759H420.866V35.0559L415.106 49.7759ZM464.686 32.1759V32.4959C464.686 32.4959 471.086 34.0959 471.086 40.8159C471.086 45.6159 465.966 50.7359 456.686 50.7359C445.486 50.7359 440.046 44.6559 440.046 44.6559L444.846 36.9759C444.846 36.9759 448.046 40.1759 451.886 40.1759C453.486 40.1759 454.446 39.2159 454.446 38.2559C454.446 37.2959 453.486 36.3359 451.886 36.3359H448.046V29.2959H452.526C454.126 29.2959 455.086 28.3359 455.086 27.3759C455.086 26.4159 454.126 25.4559 452.526 25.4559C448.686 25.4559 446.126 28.0159 446.126 28.0159L441.326 20.3359C441.326 20.3359 446.766 14.8959 456.046 14.8959C465.326 14.8959 470.446 20.0159 470.446 24.8159C470.446 30.5759 464.686 32.1759 464.686 32.1759ZM496.024 26.7359V15.8559H511.384V49.7759H496.024V38.8959H490.904V49.7759H475.544V15.8559H490.904V26.7359H496.024ZM536.674 24.8159C544.674 24.8159 550.434 30.5759 550.434 37.6159C550.434 44.6559 544.674 50.4159 533.474 50.4159C523.874 50.4159 517.794 49.7759 517.794 49.7759V15.8559H533.154V25.1359C533.154 25.1359 535.074 24.8159 536.674 24.8159ZM533.474 35.0559H532.514V40.1759H533.474C534.754 40.1759 535.714 39.2159 535.714 37.6159C535.714 36.0159 534.754 35.0559 533.474 35.0559ZM20.6489 84.7359V73.8559H36.0089V107.776H20.6489V96.8959H15.5289V107.776H0.168872V73.8559H15.5289V84.7359H20.6489ZM59.0589 72.8959C68.9789 72.8959 76.9789 80.8959 76.9789 90.8159C76.9789 91.0719 76.9789 93.7599 76.9789 94.0159H56.4989C56.4989 94.0159 57.1389 97.5359 62.2589 97.5359C65.4589 97.5359 68.0189 94.9759 68.0189 94.9759L73.4589 103.616C73.4589 103.616 68.6589 108.736 60.0189 108.736C49.1389 108.736 41.1389 100.736 41.1389 90.8159C41.1389 80.8959 49.1389 72.8959 59.0589 72.8959ZM56.1789 87.9359H61.9389C61.9389 85.3759 60.6589 84.0959 59.0589 84.0959C57.4589 84.0959 56.1789 85.3759 56.1789 87.9359ZM112.841 107.776H102.601L96.8414 89.2159V107.776H81.4814V73.8559H102.601L107.721 90.4959L112.841 73.8559H133.961V107.776H118.601V89.2159L112.841 107.776ZM160.836 84.7359V73.8559H176.196V107.776H160.836V96.8959H155.716V107.776H140.356V73.8559H155.716V84.7359H160.836ZM181.326 90.8159C181.326 80.8959 189.326 72.8959 200.846 72.8959C212.366 72.8959 220.366 80.8959 220.366 90.8159C220.366 100.736 212.366 108.736 200.846 108.736C189.326 108.736 181.326 100.736 181.326 90.8159ZM205.006 90.8159C205.006 87.9359 203.086 86.0159 200.846 86.0159C198.606 86.0159 196.686 87.9359 196.686 90.8159C196.686 93.6959 198.606 95.6159 200.846 95.6159C203.086 95.6159 205.006 93.6959 205.006 90.8159ZM226.121 73.8559H254.281V87.2959H241.481V107.776H226.121V73.8559ZM256.201 90.8159C256.201 80.8959 264.201 72.8959 275.721 72.8959C287.241 72.8959 295.241 80.8959 295.241 90.8159C295.241 100.736 287.241 108.736 275.721 108.736C264.201 108.736 256.201 100.736 256.201 90.8159ZM279.881 90.8159C279.881 87.9359 277.961 86.0159 275.721 86.0159C273.481 86.0159 271.561 87.9359 271.561 90.8159C271.561 93.6959 273.481 95.6159 275.721 95.6159C277.961 95.6159 279.881 93.6959 279.881 90.8159ZM328.209 72.8959C339.089 72.8959 347.089 80.8959 347.089 90.8159C347.089 96.3199 347.089 102.784 347.089 107.776H332.369L331.089 103.936C331.089 103.936 328.529 108.736 322.769 108.736C315.729 108.736 311.249 104.256 311.249 98.1759C311.249 92.0959 315.729 87.6159 326.609 87.6159H331.729C331.729 87.6159 331.089 84.0959 325.969 84.0959C322.769 84.0959 320.209 86.6559 320.209 86.6559L314.769 78.0159C314.769 78.0159 319.569 72.8959 328.209 72.8959ZM328.529 98.4959C330.129 98.4959 331.729 96.8959 331.729 93.0559C328.209 93.0559 326.609 94.6559 326.609 96.5759C326.609 97.5359 327.569 98.4959 328.529 98.4959ZM373.976 71.9359C367.576 71.9359 364.376 75.1359 364.376 79.6159C364.376 79.6159 368.216 75.1359 374.616 75.1359C382.936 75.1359 389.336 81.5359 389.336 90.8159C389.336 100.736 381.336 108.736 370.456 108.736C359.576 108.736 351.576 100.736 351.576 86.6559V84.0959C351.576 69.0559 359.576 61.0559 373.976 61.0559C375.576 61.0559 376.536 60.0959 376.536 58.4959H388.696C388.696 68.7359 385.496 71.9359 373.976 71.9359ZM373.976 90.8159C373.976 87.6159 372.44 86.0159 370.456 86.0159C368.472 86.0159 366.936 87.6159 366.936 90.8159C366.936 94.0159 368.472 95.6159 370.456 95.6159C372.44 95.6159 373.976 94.0159 373.976 90.8159ZM409.201 90.8159C409.201 93.6959 411.121 95.6159 414.321 95.6159C417.521 95.6159 420.081 93.0559 420.081 93.0559L426.481 103.296C426.481 103.296 421.361 108.736 412.081 108.736C401.201 108.736 393.201 100.736 393.201 90.8159C393.201 80.8959 401.201 72.8959 412.081 72.8959C421.361 72.8959 426.481 78.3359 426.481 78.3359L420.081 88.5759C420.081 88.5759 417.521 86.0159 414.321 86.0159C411.121 86.0159 409.201 87.9359 409.201 90.8159ZM437.334 110.336L438.294 107.776L427.094 73.8559H443.094L445.974 91.7759L448.854 73.8559H464.854L452.694 110.336C448.854 121.856 444.374 126.336 436.374 126.336C431.894 126.336 428.054 123.776 428.054 123.776L431.574 112.576C431.574 112.576 432.534 113.216 433.814 113.216C435.414 113.216 436.758 111.936 437.334 110.336ZM505.804 90.8159C505.804 102.336 499.404 108.736 492.364 108.736C485.964 108.736 483.404 103.936 483.404 103.936V123.776H468.044V73.8559H482.124C483.404 77.6959 483.404 77.6959 483.404 77.6959C483.404 77.6959 485.964 72.8959 492.364 72.8959C499.404 72.8959 505.804 79.2959 505.804 90.8159ZM489.804 90.8159C489.804 87.6159 488.204 86.0159 486.284 86.0159C484.364 86.0159 482.764 87.6159 482.764 90.8159C482.764 94.0159 484.364 95.6159 486.284 95.6159C488.204 95.6159 489.804 94.0159 489.804 90.8159ZM544.199 95.6159H548.679V114.816H533.319V107.776H523.079V114.816H507.719V95.6159H510.919C510.919 95.6159 514.119 91.7759 514.119 73.8559H544.199V95.6159ZM524.999 95.6159H529.479V86.0159H526.919C526.919 91.7759 524.999 95.6159 524.999 95.6159ZM567.584 72.8959C578.464 72.8959 586.464 80.8959 586.464 90.8159C586.464 96.3199 586.464 102.784 586.464 107.776H571.744L570.464 103.936C570.464 103.936 567.904 108.736 562.144 108.736C555.104 108.736 550.624 104.256 550.624 98.1759C550.624 92.0959 555.104 87.6159 565.984 87.6159H571.104C571.104 87.6159 570.464 84.0959 565.344 84.0959C562.144 84.0959 559.584 86.6559 559.584 86.6559L554.144 78.0159C554.144 78.0159 558.944 72.8959 567.584 72.8959ZM567.904 98.4959C569.504 98.4959 571.104 96.8959 571.104 93.0559C567.584 93.0559 565.984 94.6559 565.984 96.5759C565.984 97.5359 566.944 98.4959 567.904 98.4959Z" fill="#E7FAFD"/>
</svg>
