<svg width="691" height="294" viewBox="0 0 691 294" fill="none" xmlns="http://www.w3.org/2000/svg">
<path d="M54.7984 128.645H0.798389L31.3984 80.0453C31.3984 80.0453 15.1984 71.0453 15.1984 44.9453C15.1984 18.8453 33.1984 0.845257 72.7984 0.845257C99.7984 0.845257 124.998 2.64526 124.998 2.64526V128.645H78.1984V87.2453H76.3984L54.7984 128.645ZM72.7984 54.8453H78.1984V35.0453H72.7984C66.4984 35.0453 61.9984 39.5453 61.9984 44.9453C61.9984 50.3453 66.4984 54.8453 72.7984 54.8453Z" fill="#4B2D02"/>
<path d="M207.876 36.8453V48.5453C207.876 48.5453 216.876 47.6453 227.676 47.6453C258.276 47.6453 276.276 65.6453 276.276 89.0453C276.276 112.445 258.276 130.445 218.676 130.445C188.076 130.445 161.076 128.645 161.076 128.645V2.64526H260.076V36.8453H207.876ZM218.676 80.0453H207.876V98.0453H218.676C224.976 98.0453 229.476 93.5453 229.476 89.0453C229.476 84.5453 224.976 80.0453 218.676 80.0453Z" fill="#4B2D02"/>
<path d="M135.798 164.645L101.598 227.645L139.398 290.645H85.3984L60.1984 240.245V290.645H13.3984V164.645H60.1984V215.045L81.7984 164.645H135.798ZM205.098 206.045L214.998 164.645H268.998L230.298 247.445C215.898 278.045 200.598 293.345 178.098 293.345C160.098 293.345 147.498 283.445 147.498 283.445L158.298 249.245C158.298 249.245 165.498 252.845 172.698 252.845C178.098 252.845 179.898 247.445 179.898 247.445L139.398 164.645H193.398L205.098 206.045ZM276.191 164.645H398.591V290.645H351.791V204.245H322.991V290.645H276.191V164.645ZM466.956 225.845L495.756 164.645H546.156V290.645H499.356V229.445L470.556 290.645H420.156V164.645H466.956V225.845ZM690.212 164.645V290.645H643.412V202.445H627.212C627.212 269.945 603.812 293.345 575.012 293.345C566.012 293.345 557.012 290.645 557.012 290.645V256.445C557.012 256.445 557.012 256.445 560.612 256.445C573.212 256.445 584.012 245.645 584.012 164.645H690.212Z" fill="url(#paint0_linear_11_87)"/>
<defs>
<linearGradient id="paint0_linear_11_87" x1="575.722" y1="208.27" x2="608.263" y2="1253.9" gradientUnits="userSpaceOnUse">
<stop stop-color="#E9FCFF"/>
<stop offset="1" stop-color="#4B2D02"/>
</linearGradient>
</defs>
</svg>
