<svg width="20" height="20" viewBox="0 0 20 20" fill="none" xmlns="http://www.w3.org/2000/svg">
<path fill-rule="evenodd" clip-rule="evenodd" d="M8.40804 0.0155163C13.0517 0.0155163 16.8161 3.77993 16.8161 8.42356C16.8161 10.0474 16.355 11.5632 15.5578 12.8486L19.4046 16.6954L19.473 16.7673C20.1564 17.5237 20.1336 18.6912 19.4046 19.4201C18.6756 20.149 17.5081 20.1719 16.7518 19.4885L16.6799 19.4201L12.8331 15.5733C11.5477 16.3705 10.0318 16.8316 8.40804 16.8316C3.76446 16.8316 1.15567e-05 13.0672 0 8.42356C0 3.77995 3.76445 0.0155625 8.40804 0.0155163ZM8.40804 2.8182C5.31233 2.81824 2.80268 5.32783 2.80268 8.42356C2.80269 11.5193 5.31233 14.0289 8.40804 14.0289C11.5038 14.0289 14.0134 11.5193 14.0134 8.42356C14.0134 5.3278 11.5038 2.8182 8.40804 2.8182Z" fill="#4B2D02"/>
</svg>
