<svg width="59" height="19" viewBox="0 0 59 19" fill="none" xmlns="http://www.w3.org/2000/svg">
<g filter="url(#filter0_d_19_4)">
<path d="M11.7536 3.71393V5.07393H8.95356V12.7539H7.30556V5.07393H4.50556V3.71393H11.7536ZM12.7852 10.1939C12.9932 11.2179 13.6812 11.7779 14.7692 11.7779C15.4412 11.7779 16.1132 11.3779 16.4012 10.8179L17.7292 11.1539C17.2332 12.3219 16.1132 12.9779 14.7532 12.9779C13.0572 12.9779 11.6172 12.1619 11.3772 10.1939C11.1692 7.87393 12.4492 6.24193 14.6092 6.24193C16.9292 6.24193 17.9532 7.84193 17.7452 10.1939H12.7852ZM14.5772 7.34593C13.6012 7.34593 12.8652 8.09793 12.7372 9.18593H16.4012C16.3852 8.11393 15.6012 7.36193 14.5772 7.34593ZM19.5954 6.52993H24.6354V12.7539H23.1954V7.96993H21.0834C20.9874 10.0019 20.4594 11.4419 19.2594 12.9939L18.0754 12.1619C19.3714 10.2419 19.7234 8.76993 19.5954 6.52993ZM26.6133 10.1939C26.8213 11.2179 27.5093 11.7779 28.5973 11.7779C29.2693 11.7779 29.9413 11.3779 30.2293 10.8179L31.5573 11.1539C31.0613 12.3219 29.9413 12.9779 28.5813 12.9779C26.8853 12.9779 25.4453 12.1619 25.2053 10.1939C24.9973 7.87393 26.2773 6.24193 28.4373 6.24193C30.7573 6.24193 31.7813 7.84193 31.5733 10.1939H26.6133ZM28.4053 7.34593C27.4293 7.34593 26.6933 8.09793 26.5653 9.18593H30.2293C30.2133 8.11393 29.4293 7.36193 28.4053 7.34593ZM39.2837 12.7539L37.8437 10.2579H37.0757V12.7539H35.6357V10.2579H34.8837L33.4757 12.7539H31.7317L33.7477 9.58593L31.9237 6.52993H33.6357L34.9637 8.97793H35.6357V6.52993H37.0757V8.97793H37.7637L39.0757 6.52993H40.7877L38.9637 9.56993L40.9797 12.7539H39.2837ZM45.7474 12.7539L44.0994 10.1139H43.1074V12.7539H41.6674V6.52993H43.1074V8.91393H44.0994L45.5394 6.52993H47.2354L45.3154 9.52193L47.4274 12.7539H45.7474ZM50.7007 6.24193C52.5727 6.24193 53.7887 7.39393 53.7887 9.36193V12.7539H52.3487V11.5539C51.7247 12.4659 50.5247 12.9779 49.5327 12.9779C48.1887 12.9619 47.5487 11.8899 47.5487 11.0259C47.5487 9.72993 48.5887 9.04193 49.6927 9.04193H52.3487C52.3167 8.43393 51.9967 7.39393 50.7167 7.39393C49.3407 7.39393 48.9887 8.44993 48.9887 8.44993L47.8207 8.14593C48.1247 6.96193 49.2927 6.24193 50.7007 6.24193ZM49.9167 11.7779C51.0367 11.7619 52.3167 10.9139 52.3167 10.0019H51.0367C49.9167 10.0019 49.1167 10.0819 48.9887 10.9139C48.9247 11.3459 49.1167 11.7459 49.9167 11.7779Z" fill="#4B2D02"/>
</g>
<defs>
<filter id="filter0_d_19_4" x="0.105615" y="0.313929" width="58.083" height="18.08" filterUnits="userSpaceOnUse" color-interpolation-filters="sRGB">
<feFlood flood-opacity="0" result="BackgroundImageFix"/>
<feColorMatrix in="SourceAlpha" type="matrix" values="0 0 0 0 0 0 0 0 0 0 0 0 0 0 0 0 0 0 127 0" result="hardAlpha"/>
<feOffset dy="1"/>
<feGaussianBlur stdDeviation="2.2"/>
<feComposite in2="hardAlpha" operator="out"/>
<feColorMatrix type="matrix" values="0 0 0 0 0 0 0 0 0 0 0 0 0 0 0 0 0 0 0.19 0"/>
<feBlend mode="normal" in2="BackgroundImageFix" result="effect1_dropShadow_19_4"/>
<feBlend mode="normal" in="SourceGraphic" in2="effect1_dropShadow_19_4" result="shape"/>
</filter>
</defs>
</svg>
