<svg width="57" height="30" viewBox="0 0 57 30" fill="none" xmlns="http://www.w3.org/2000/svg">
<path d="M12.4037 28.6559H0.403711L7.20371 17.8559C7.20371 17.8559 3.60371 15.8559 3.60371 10.0559C3.60371 4.25588 7.60371 0.255878 16.4037 0.255878C22.4037 0.255878 28.0037 0.655878 28.0037 0.655878V28.6559H17.6037V19.4559H17.2037L12.4037 28.6559ZM16.4037 12.2559H17.6037V7.85588H16.4037C15.0037 7.85588 14.0037 8.85588 14.0037 10.0559C14.0037 11.2559 15.0037 12.2559 16.4037 12.2559ZM41.6131 8.25588V10.8559C41.6131 10.8559 43.6131 10.6559 46.0131 10.6559C52.8131 10.6559 56.8131 14.6559 56.8131 19.8559C56.8131 25.0559 52.8131 29.0559 44.0131 29.0559C37.2131 29.0559 31.2131 28.6559 31.2131 28.6559V0.655878H53.2131V8.25588H41.6131ZM44.0131 17.8559H41.6131V21.8559H44.0131C45.4131 21.8559 46.4131 20.8559 46.4131 19.8559C46.4131 18.8559 45.4131 17.8559 44.0131 17.8559Z" fill="#4B2D02"/>
</svg>
